<?xml version="1.0" encoding="utf-8"?>
<svg version="1.1" xmlns:xlink="http://www.w3.org/1999/xlink" width="300px" height="300px" xmlns="http://www.w3.org/2000/svg">
  <g transform="matrix(1 0 0 1 -235 -115 )">
    <path d="M 235 115  L 535 115  L 535 415  L 235 415  L 235 115  " fill-rule="nonzero" fill="#cccccc" stroke="none" />
    <path d="M 256 136  L 514 136  L 514 394  L 256 394  L 256 136  " fill-rule="nonzero" fill="#ffffff" stroke="none" />
    <path d="M 413.5 205  C 400.9 205  391 195.1  391 182.5  C 391 169.9  400.9 160  413.5 160  C 426.1 160  436 169.9  436 182.5  C 436 195.1  426.1 205  413.5 205  " fill-rule="nonzero" fill="#cccccc" stroke="none" />
    <path d="M 264 387  L 264 253.35  L 324.75 192.6  L 409.8 241.2  L 458.4 229.05  L 507 241.2  L 507 387  L 264 387  " fill-rule="nonzero" fill="#169bd5" stroke="none" />
  </g>
</svg>