<svg class="icon" viewBox="0 0 1024 1024" version="1.1" xmlns="http://www.w3.org/2000/svg" p-id="42752" height="128" width="128"><path d="M409.850028 713.780731c0-188.172757 144.159468-342.325581 320.212625-342.325581a302.352159 302.352159 0 0 1 144.584717 37.421926v-318.936877A82.285714 82.285714 0 0 0 793.424779 3.401993H81.13242A82.07309 82.07309 0 0 0 0.122453 89.940199v812.651163a82.07309 82.07309 0 0 0 81.009967 86.538206h460.332226a349.767442 349.767442 0 0 1-131.614618-275.348837z" fill="#3186D9" p-id="42753"></path><path d="M730.062653 403.986711c-160.106312 0-290.445183 139.269103-290.445183 310.431894s130.33887 309.581395 290.445183 309.581395S1020.72046 884.730897 1020.72046 713.780731a322.33887 322.33887 0 0 0-63.787375-194.976744l-3.189369-4.039867c-3.614618-4.677741-7.654485-9.142857-11.694352-13.820598a315.322259 315.322259 0 0 0-63.787376-53.79402l-2.976744-1.488372A276.41196 276.41196 0 0 0 730.062653 403.986711z" fill="#3186D9" p-id="42754"></path><path d="M430.049364 413.980066H193.185576a21.262458 21.262458 0 0 0-21.262458 22.538206 21.262458 21.262458 0 0 0 21.262458 22.538206h236.863788a21.262458 21.262458 0 0 0 21.262458-22.538206 21.262458 21.262458 0 0 0-21.262458-22.538206z m-147.561462 253.023256h-89.302326a22.538206 22.538206 0 0 0 0 44.863788h89.302326a22.538206 22.538206 0 0 0 0-44.863788zM734.953018 871.760797a21.262458 21.262458 0 0 0 21.262459-22.538206v-50.604651H829.358334a22.538206 22.538206 0 0 0 0-45.076412h-73.142857v-36.358804H829.358334a22.538206 22.538206 0 0 0 0-45.076412h-47.202658l43.800664-60.598006a28.066445 28.066445 0 0 0-4.890365-32.956811 23.813953 23.813953 0 0 0-30.830565 5.10299l-56.770764 81.435216-56.770764-81.435216a23.17608 23.17608 0 0 0-30.830565-3.401993 27.215947 27.215947 0 0 0-3.401993 32.95681l42.524917 60.598007h-52.093024a22.538206 22.538206 0 0 0 0 45.076412h79.521595v36.358804h-79.521595a22.538206 22.538206 0 0 0 0 45.076412h79.521595V850.498339a21.262458 21.262458 0 0 0 22.538206 21.262458zM663.723782 193.913621H193.185576a21.262458 21.262458 0 0 0-21.262458 22.538206 21.262458 21.262458 0 0 0 21.262458 22.538206h470.538206a21.262458 21.262458 0 0 0 21.262459-22.538206 21.262458 21.262458 0 0 0-21.262459-22.538206z m0 0" fill="#FFFFFF" p-id="42755"></path></svg>